<svg xmlns="http://www.w3.org/2000/svg" viewBox="0 0 457.36 88.58"><defs><style>.cls-1{fill:#fff;}.cls-2{fill:#00c9ff;}</style></defs><g id="Layer_2" data-name="Layer 2"><g id="Lager_1" data-name="Lager 1"><path class="cls-1" d="M59.61,66h3L56.84,83.48h-2.4L50.31,70.81,46.2,83.48H43.77L37.9,66H41l4,12.71L49.14,66h2.43l4,12.71Z"/><path class="cls-1" d="M75.51,76.82a6.77,6.77,0,0,1-.1,1.21h-9.3a3.7,3.7,0,0,0,1.19,2.33,3.5,3.5,0,0,0,2.43.85,4.35,4.35,0,0,0,1.91-.42,3.05,3.05,0,0,0,1.29-1.13l2.22,1.41A4.67,4.67,0,0,1,73,83a7.53,7.53,0,0,1-3.34.7,6.39,6.39,0,0,1-3.2-.83,6.25,6.25,0,0,1-2.3-2.32,6.48,6.48,0,0,1-.85-3.27,6.25,6.25,0,0,1,3.12-5.47A6.34,6.34,0,0,1,69.63,71a5.93,5.93,0,0,1,3,.77,5.78,5.78,0,0,1,2.9,5ZM66.2,75.9h6.38a2.72,2.72,0,0,0-1-1.88,3.5,3.5,0,0,0-4.21,0A3.55,3.55,0,0,0,66.2,75.9Z"/><path class="cls-1" d="M92.21,71a3.87,3.87,0,0,1,1.55.28L93.45,74a3.86,3.86,0,0,0-1.5-.3,2.75,2.75,0,0,0-2,.87,3.27,3.27,0,0,0-.87,2.4v6.53H86.32V71.26h2.77V73a3.67,3.67,0,0,1,3.12-2Z"/><path class="cls-1" d="M107.81,76.82a6.87,6.87,0,0,1-.09,1.21H98.41a3.79,3.79,0,0,0,1.19,2.33,3.54,3.54,0,0,0,2.44.85,4.27,4.27,0,0,0,1.9-.42,3,3,0,0,0,1.3-1.13l2.22,1.41a4.72,4.72,0,0,1-2.13,2,7.56,7.56,0,0,1-3.34.7,6.39,6.39,0,0,1-3.2-.83,6.17,6.17,0,0,1-2.3-2.32,6.38,6.38,0,0,1-.85-3.27,6.25,6.25,0,0,1,3.12-5.47,6.31,6.31,0,0,1,3.18-.83,5.92,5.92,0,0,1,3,.77,5.72,5.72,0,0,1,2.9,5Zm-9.3-.92h6.37a2.71,2.71,0,0,0-1-1.88,3.23,3.23,0,0,0-2.13-.72A3.18,3.18,0,0,0,99.7,74,3.55,3.55,0,0,0,98.51,75.9Z"/><path class="cls-1" d="M121,66h2.81V83.48H121V81.33a4.73,4.73,0,0,1-1.77,1.78,5.12,5.12,0,0,1-2.55.61,5.34,5.34,0,0,1-2.94-.85,6,6,0,0,1-2.13-2.32,7,7,0,0,1,0-6.4,6.08,6.08,0,0,1,2.13-2.31,5.41,5.41,0,0,1,2.94-.84,5.12,5.12,0,0,1,2.55.62A4.75,4.75,0,0,1,121,73.41Zm-3.73,15.1a3.74,3.74,0,0,0,2.66-6.36,3.65,3.65,0,0,0-2.66-1.06,3.58,3.58,0,0,0-2.63,1.08,3.53,3.53,0,0,0-1.09,2.62,3.69,3.69,0,0,0,3.72,3.72Z"/><path class="cls-1" d="M139.54,76.82a6.77,6.77,0,0,1-.1,1.21h-9.3a3.7,3.7,0,0,0,1.19,2.33,3.51,3.51,0,0,0,2.43.85,4.35,4.35,0,0,0,1.91-.42A3,3,0,0,0,137,79.66l2.22,1.41a4.62,4.62,0,0,1-2.13,2,7.53,7.53,0,0,1-3.34.7,6.32,6.32,0,0,1-3.19-.83,6.1,6.1,0,0,1-2.3-2.32,6.38,6.38,0,0,1-.85-3.27,6.21,6.21,0,0,1,3.11-5.47,6.34,6.34,0,0,1,3.18-.83,5.93,5.93,0,0,1,3,.77,5.65,5.65,0,0,1,2.12,2.11A5.72,5.72,0,0,1,139.54,76.82Zm-9.31-.92h6.38a2.72,2.72,0,0,0-1-1.88,3.5,3.5,0,0,0-4.21,0A3.61,3.61,0,0,0,130.23,75.9Z"/><path class="cls-1" d="M147.1,70.28v1h3.21v2.65H147.1v9.57h-2.77V73.91H142V71.26h2.34V70.15a4.66,4.66,0,0,1,1.26-3.47,4.54,4.54,0,0,1,3.34-1.26,4,4,0,0,1,1.51.28l-.16,2.48a3.2,3.2,0,0,0-.94-.16,2.22,2.22,0,0,0-1.59.62A2.17,2.17,0,0,0,147.1,70.28Z"/><path class="cls-1" d="M154.18,66.11a1.76,1.76,0,0,1,2.52,0,1.66,1.66,0,0,1,.53,1.24,1.69,1.69,0,0,1-.53,1.27,1.78,1.78,0,0,1-3-1.27A1.69,1.69,0,0,1,154.18,66.11ZM154,71.26h2.77V83.48H154Z"/><path class="cls-1" d="M167.72,71a4.79,4.79,0,0,1,3.71,1.48,5.7,5.7,0,0,1,1.37,4v7H170V76.85a3.25,3.25,0,0,0-.81-2.31,2.79,2.79,0,0,0-2.14-.86,2.9,2.9,0,0,0-2.21.86,3.22,3.22,0,0,0-.82,2.31v6.63h-2.77V71.26H164v1.92a4.19,4.19,0,0,1,1.54-1.61A4.1,4.1,0,0,1,167.72,71Z"/><path class="cls-1" d="M188.76,76.82a6,6,0,0,1-.1,1.21h-9.3a3.74,3.74,0,0,0,1.19,2.33,3.52,3.52,0,0,0,2.44.85,4.3,4.3,0,0,0,1.9-.42,3,3,0,0,0,1.3-1.13l2.22,1.41a4.72,4.72,0,0,1-2.13,2,7.56,7.56,0,0,1-3.34.7,6.36,6.36,0,0,1-3.2-.83,6.1,6.1,0,0,1-2.3-2.32,6.38,6.38,0,0,1-.85-3.27,6.23,6.23,0,0,1,.84-3.19,6.09,6.09,0,0,1,2.28-2.28,6.29,6.29,0,0,1,3.18-.83,5.92,5.92,0,0,1,3,.77A5.68,5.68,0,0,1,188,73.88,5.81,5.81,0,0,1,188.76,76.82Zm-9.3-.92h6.37a2.71,2.71,0,0,0-1-1.88,3.51,3.51,0,0,0-4.22,0A3.54,3.54,0,0,0,179.46,75.9Z"/><path class="cls-1" d="M211.12,76.82A6,6,0,0,1,211,78h-9.3a3.74,3.74,0,0,0,1.19,2.33,3.52,3.52,0,0,0,2.44.85,4.3,4.3,0,0,0,1.9-.42,3,3,0,0,0,1.3-1.13l2.22,1.41a4.72,4.72,0,0,1-2.13,2,7.56,7.56,0,0,1-3.34.7,6.39,6.39,0,0,1-3.2-.83,6.17,6.17,0,0,1-2.3-2.32A6.38,6.38,0,0,1,199,77.3a6.23,6.23,0,0,1,.84-3.19,6.16,6.16,0,0,1,2.28-2.28,6.29,6.29,0,0,1,3.18-.83,5.92,5.92,0,0,1,3,.77,5.68,5.68,0,0,1,2.13,2.11A5.81,5.81,0,0,1,211.12,76.82Zm-9.3-.92h6.37a2.71,2.71,0,0,0-1-1.88A3.51,3.51,0,0,0,203,74,3.54,3.54,0,0,0,201.82,75.9Z"/><path class="cls-1" d="M221.41,71a4.79,4.79,0,0,1,3.71,1.48,5.7,5.7,0,0,1,1.37,4v7h-2.8V76.85a3.25,3.25,0,0,0-.81-2.31,2.77,2.77,0,0,0-2.14-.86,2.86,2.86,0,0,0-2.2.86,3.22,3.22,0,0,0-.83,2.31v6.63h-2.77V71.26h2.77v1.92a4.26,4.26,0,0,1,1.54-1.61A4.12,4.12,0,0,1,221.41,71Z"/><path class="cls-1" d="M242.46,76.82a6.77,6.77,0,0,1-.1,1.21h-9.3a3.74,3.74,0,0,0,1.18,2.33,3.54,3.54,0,0,0,2.44.85,4.27,4.27,0,0,0,1.9-.42,3,3,0,0,0,1.3-1.13l2.22,1.41A4.72,4.72,0,0,1,240,83a7.53,7.53,0,0,1-3.34.7,6.39,6.39,0,0,1-3.2-.83,6.25,6.25,0,0,1-2.3-2.32,6.48,6.48,0,0,1-.85-3.27,6.25,6.25,0,0,1,3.12-5.47,6.34,6.34,0,0,1,3.18-.83,6,6,0,0,1,3,.77,5.78,5.78,0,0,1,2.9,5Zm-9.31-.92h6.38a2.72,2.72,0,0,0-1-1.88,3.5,3.5,0,0,0-4.21,0A3.55,3.55,0,0,0,233.15,75.9Z"/><path class="cls-1" d="M252.17,71a3.87,3.87,0,0,1,1.55.28L253.4,74a3.79,3.79,0,0,0-1.5-.3,2.73,2.73,0,0,0-2,.87,3.27,3.27,0,0,0-.87,2.4v6.53h-2.78V71.26h2.78V73a3.67,3.67,0,0,1,3.12-2Z"/><path class="cls-1" d="M265.77,71.22h2.8V82.67a5.63,5.63,0,0,1-3.22,5.19,7.48,7.48,0,0,1-3.31.72,9.4,9.4,0,0,1-3.17-.55,6,6,0,0,1-2.4-1.48l1.4-1.92a5.05,5.05,0,0,0,1.85,1.08,7.37,7.37,0,0,0,2.32.37,3.84,3.84,0,0,0,2.6-1,3.12,3.12,0,0,0,1.13-2.43v-1.6A4.43,4.43,0,0,1,264,82.84a5.15,5.15,0,0,1-2.55.61,5.46,5.46,0,0,1-4.14-1.83,6.24,6.24,0,0,1-1.71-4.42,6.39,6.39,0,0,1,.78-3.12,6,6,0,0,1,2.12-2.25,5.55,5.55,0,0,1,2.95-.83,5.28,5.28,0,0,1,2.55.61,4.72,4.72,0,0,1,1.77,1.75ZM262,80.83a3.67,3.67,0,0,0,2.67-1,3.67,3.67,0,0,0,0-5.17,3.71,3.71,0,0,0-2.66-1,3.64,3.64,0,0,0-2.63,1.05,3.4,3.4,0,0,0-1.09,2.55,3.45,3.45,0,0,0,1.08,2.57A3.61,3.61,0,0,0,262,80.83Z"/><path class="cls-1" d="M281.15,71.26h3l-6.91,16.52h-3l2.2-5L271.6,71.26h3l3.29,8.32Z"/><path class="cls-1" d="M306,76.82a6,6,0,0,1-.1,1.21h-9.3a3.74,3.74,0,0,0,1.19,2.33,3.52,3.52,0,0,0,2.44.85,4.3,4.3,0,0,0,1.9-.42,3,3,0,0,0,1.3-1.13l2.22,1.41a4.72,4.72,0,0,1-2.13,2,7.56,7.56,0,0,1-3.34.7,6.36,6.36,0,0,1-3.2-.83,6.1,6.1,0,0,1-2.3-2.32,6.38,6.38,0,0,1-.85-3.27,6.23,6.23,0,0,1,.84-3.19,6.09,6.09,0,0,1,2.28-2.28,6.29,6.29,0,0,1,3.18-.83,5.92,5.92,0,0,1,3,.77,5.68,5.68,0,0,1,2.13,2.11A5.81,5.81,0,0,1,306,76.82Zm-9.3-.92H303a2.71,2.71,0,0,0-1-1.88,3.51,3.51,0,0,0-4.22,0A3.54,3.54,0,0,0,296.66,75.9Z"/><path class="cls-1" d="M313.53,70.28v1h3.21v2.65h-3.21v9.57h-2.77V73.91h-2.35V71.26h2.35V70.15A4.66,4.66,0,0,1,312,66.68a4.51,4.51,0,0,1,3.34-1.26,3.93,3.93,0,0,1,1.5.28l-.16,2.48a3.14,3.14,0,0,0-.94-.16,2.22,2.22,0,0,0-1.59.62A2.16,2.16,0,0,0,313.53,70.28Z"/><path class="cls-1" d="M324.1,70.28v1h3.21v2.65H324.1v9.57h-2.77V73.91H319V71.26h2.35V70.15a4.66,4.66,0,0,1,1.26-3.47,4.51,4.51,0,0,1,3.34-1.26,3.93,3.93,0,0,1,1.5.28l-.16,2.48a3.14,3.14,0,0,0-.94-.16,2.22,2.22,0,0,0-1.59.62A2.16,2.16,0,0,0,324.1,70.28Z"/><path class="cls-1" d="M331.17,66.11a1.74,1.74,0,0,1,1.26-.53,1.76,1.76,0,0,1,1.27.53,1.7,1.7,0,0,1,.53,1.24,1.73,1.73,0,0,1-.53,1.27,1.76,1.76,0,0,1-1.27.53,1.74,1.74,0,0,1-1.26-.53,1.72,1.72,0,0,1-.52-1.27A1.69,1.69,0,0,1,331.17,66.11ZM331,71.26h2.77V83.48H331Z"/><path class="cls-1" d="M349.64,80.38a5.34,5.34,0,0,1-2.21,2.43,6.45,6.45,0,0,1-3.41.91,6.18,6.18,0,0,1-4.56-1.82,6.09,6.09,0,0,1-1.84-4.53,6.38,6.38,0,0,1,.83-3.24,6,6,0,0,1,2.29-2.3A6.52,6.52,0,0,1,344,71a6.27,6.27,0,0,1,3.18.81A5.08,5.08,0,0,1,349.26,74l-2.35,1.32a2.83,2.83,0,0,0-1.16-1.19,3.5,3.5,0,0,0-1.76-.43,3.47,3.47,0,0,0-2.59,1,3.64,3.64,0,0,0-1,2.64,3.54,3.54,0,0,0,1,2.62A3.5,3.5,0,0,0,344,81.05a3.73,3.73,0,0,0,1.9-.48,2.93,2.93,0,0,0,1.24-1.32Z"/><path class="cls-1" d="M353.33,66.11a1.72,1.72,0,0,1,1.26-.53,1.76,1.76,0,0,1,1.26.53,1.7,1.7,0,0,1,.53,1.24,1.73,1.73,0,0,1-.53,1.27,1.76,1.76,0,0,1-1.26.53,1.81,1.81,0,0,1-1.79-1.8A1.7,1.7,0,0,1,353.33,66.11Zm-.15,5.15H356V83.48h-2.77Z"/><path class="cls-1" d="M371.94,76.82a6.87,6.87,0,0,1-.09,1.21h-9.31a3.74,3.74,0,0,0,1.19,2.33,3.52,3.52,0,0,0,2.44.85,4.3,4.3,0,0,0,1.9-.42,3,3,0,0,0,1.3-1.13l2.22,1.41a4.72,4.72,0,0,1-2.13,2,7.56,7.56,0,0,1-3.34.7,6.39,6.39,0,0,1-3.2-.83,6.17,6.17,0,0,1-2.3-2.32,6.48,6.48,0,0,1-.85-3.27,6.25,6.25,0,0,1,3.12-5.47,6.34,6.34,0,0,1,3.18-.83,5.92,5.92,0,0,1,3,.77,5.68,5.68,0,0,1,2.13,2.11A5.81,5.81,0,0,1,371.94,76.82Zm-9.3-.92H369A2.71,2.71,0,0,0,368,74a3.51,3.51,0,0,0-4.22,0A3.6,3.6,0,0,0,362.64,75.9Z"/><path class="cls-1" d="M382.23,71a4.78,4.78,0,0,1,3.71,1.48,5.7,5.7,0,0,1,1.37,4v7h-2.8V76.85a3.25,3.25,0,0,0-.81-2.31,2.77,2.77,0,0,0-2.14-.86,2.88,2.88,0,0,0-2.2.86,3.22,3.22,0,0,0-.83,2.31v6.63h-2.77V71.26h2.77v1.92a4.26,4.26,0,0,1,1.54-1.61A4.15,4.15,0,0,1,382.23,71Z"/><path class="cls-1" d="M403.13,80.38a5.4,5.4,0,0,1-2.21,2.43,6.48,6.48,0,0,1-3.42.91,6.21,6.21,0,0,1-4.56-1.82,6.13,6.13,0,0,1-1.84-4.53,6.48,6.48,0,0,1,.83-3.24,6,6,0,0,1,2.3-2.3,6.52,6.52,0,0,1,3.25-.83,6.27,6.27,0,0,1,3.18.81A5.13,5.13,0,0,1,402.75,74l-2.36,1.32a2.8,2.8,0,0,0-1.15-1.19,3.53,3.53,0,0,0-1.76-.43,3.49,3.49,0,0,0-2.6,1,3.64,3.64,0,0,0-1,2.64,3.58,3.58,0,0,0,1,2.62,3.51,3.51,0,0,0,2.61,1.06,3.7,3.7,0,0,0,1.9-.48,3,3,0,0,0,1.25-1.32Z"/><path class="cls-1" d="M415,71.26h3l-6.9,16.52h-3l2.2-5-4.85-11.57h3l3.29,8.32Z"/><path class="cls-2" d="M66.45,0H82.79l21.54,34.45L125.81,0h16.12V45.77H131.57L132,8.1,108.31,45.77H100L76.47,8.1l.28,37.67H66.45Z"/><path class="cls-2" d="M170.9,36.71l-5.08,9.06H154L180.16,0H194.5l25.81,45.77H208.78l-5.22-9.06Zm16.33-29.3L175,29.3h24.7Z"/><path class="cls-2" d="M230.26,0H269c8,0,11.67,1,14.14,3.64,2,2.19,2.95,5.76,2.95,11,0,4.46-.83,7.48-2.54,9.4-1.44,1.71-3.71,2.47-9.27,3.15,4.4.28,5.43.48,6.8,1.1,2.95,1.44,4.25,4,4.25,8.44v9.06H274.73V38.91c0-6.11-1.51-7.41-8.51-7.41H240.76V45.77h-10.5Zm35.61,23.06c7.69,0,9.61-1.38,9.61-6.87,0-6.31-1.58-7.61-9.4-7.61H240.76V23.06Z"/><path class="cls-2" d="M301.36,0h10.56V45.77H301.36Z"/><path class="cls-2" d="M328.33,0h16.4L379.1,38.08,378.9,0H389V45.77H372.52L338.34,7.89l.21,37.88H328.33Z"/><polygon class="cls-2" points="452.63 45.77 405.32 45.77 405.32 36.41 457.36 36.41 452.63 45.77"/><polygon class="cls-2" points="448.14 18.21 405.32 18.21 405.32 27.56 443.4 27.56 448.14 18.21"/><polygon class="cls-2" points="457.36 0 405.32 0 405.32 9.35 452.63 9.35 457.36 0"/><polygon class="cls-2" points="47.3 45.77 0 45.77 0 36.41 52.04 36.41 47.3 45.77"/><polygon class="cls-2" points="42.82 18.21 0 18.21 0 27.56 38.08 27.56 42.82 18.21"/><polygon class="cls-2" points="52.04 0 0 0 0 9.35 47.3 9.35 52.04 0"/></g></g></svg>